<?xml version="1.0" standalone="yes"?>

<svg version="1.1" viewBox="0.0 0.0 1152.0 600.0" fill="none" stroke="none" stroke-linecap="square" stroke-miterlimit="10" xmlns="http://www.w3.org/2000/svg" xmlns:xlink="http://www.w3.org/1999/xlink"><clipPath id="p.0"><path d="m0 0l1152.0 0l0 600.0l-1152.0 0l0 -600.0z" clip-rule="nonzero"></path></clipPath><g clip-path="url(#p.0)"><path fill="#000000" fill-opacity="0.0" d="m0 0l1152.0 0l0 600.0l-1152.0 0z" fill-rule="nonzero"></path><path fill="#000000" d="m1.2283465 0l1157.6377 0l0 600.0l-1157.6377 0z" fill-rule="nonzero"></path><path stroke="#000000" stroke-width="4.0" stroke-linejoin="round" stroke-linecap="butt" d="m1.2283465 0l1157.6377 0l0 600.0l-1157.6377 0z" fill-rule="nonzero"></path><path fill="#000000" fill-opacity="0.0" d="m932.55383 -45.144356l0 0c0 -7.4536705 6.0423584 -13.496063 13.496033 -13.496063l0 0c3.5794067 0 7.012146 1.4219017 9.543152 3.9529037c2.5310059 2.531002 3.952942 5.9637794 3.952942 9.5431595l0 0c0 7.4536667 -6.0424194 13.496061 -13.496094 13.496061l0 0c-7.4536743 0 -13.496033 -6.0423946 -13.496033 -13.496061z" fill-rule="nonzero"></path><path stroke="#999999" stroke-width="4.0" stroke-linejoin="round" stroke-linecap="butt" d="m932.55383 -45.144356l0 0c0 -7.4536705 6.0423584 -13.496063 13.496033 -13.496063l0 0c3.5794067 0 7.012146 1.4219017 9.543152 3.9529037c2.5310059 2.531002 3.952942 5.9637794 3.952942 9.5431595l0 0c0 7.4536667 -6.0424194 13.496061 -13.496094 13.496061l0 0c-7.4536743 0 -13.496033 -6.0423946 -13.496033 -13.496061z" fill-rule="nonzero"></path><path fill="#000000" fill-opacity="0.0" d="m1373.6553 233.74661l176.12598 0" fill-rule="nonzero"></path><path stroke="#0187e8" stroke-width="16.0" stroke-linejoin="round" stroke-linecap="butt" d="m1373.6553 233.74661l176.12598 0" fill-rule="nonzero"></path><path fill="#000000" fill-opacity="0.0" d="m1326.9954 281.42188l0 428.77106" fill-rule="nonzero"></path><path stroke="#0187e8" stroke-width="16.0" stroke-linejoin="round" stroke-linecap="butt" d="m1326.9954 281.42188l0 428.77106" fill-rule="nonzero"></path><path fill="#000000" fill-opacity="0.0" d="m1375.4357 233.7454l0 0c-12.84729 0 -25.168457 5.0869904 -34.25293 14.1418915c-9.084351 9.054901 -14.187988 21.335999 -14.187988 34.14157l48.440918 0z" fill-rule="nonzero"></path><path fill="#000000" fill-opacity="0.0" d="m1375.4357 233.7454l0 0c-12.84729 0 -25.168457 5.0869904 -34.25293 14.1418915c-9.084351 9.054901 -14.187988 21.335999 -14.187988 34.14157" fill-rule="nonzero"></path><path stroke="#0187e8" stroke-width="16.0" stroke-linejoin="round" stroke-linecap="butt" d="m1375.4357 233.7454l0 0c-12.84729 0 -25.168457 5.0869904 -34.25293 14.1418915c-9.084351 9.054901 -14.187988 21.335999 -14.187988 34.14157" fill-rule="nonzero"></path><path fill="#000000" fill-opacity="0.0" d="m1346.5432 360.1763l0 452.95486" fill-rule="nonzero"></path><path stroke="#0187e8" stroke-width="16.0" stroke-linejoin="round" stroke-linecap="butt" d="m1346.5432 360.1763l0 452.95486" fill-rule="nonzero"></path><path fill="#000000" fill-opacity="0.0" d="m1394.1282 312.16196l219.8739 0" fill-rule="nonzero"></path><path stroke="#0187e8" stroke-width="16.0" stroke-linejoin="round" stroke-linecap="butt" d="m1394.1282 312.16196l219.8739 0" fill-rule="nonzero"></path><path fill="#000000" fill-opacity="0.0" d="m1394.9843 312.2454l0 0c-12.84729 0 -25.168457 5.0870056 -34.25293 14.141907c-9.084473 9.054901 -14.187988 21.335999 -14.187988 34.14157l48.440918 0z" fill-rule="nonzero"></path><path fill="#000000" fill-opacity="0.0" d="m1394.9843 312.2454l0 0c-12.84729 0 -25.168457 5.0870056 -34.25293 14.141907c-9.084473 9.054901 -14.187988 21.335999 -14.187988 34.14157" fill-rule="nonzero"></path><path stroke="#0187e8" stroke-width="16.0" stroke-linejoin="round" stroke-linecap="butt" d="m1394.9843 312.2454l0 0c-12.84729 0 -25.168457 5.0870056 -34.25293 14.141907c-9.084473 9.054901 -14.187988 21.335999 -14.187988 34.14157" fill-rule="nonzero"></path><path fill="#000000" fill-opacity="0.0" d="m895.32416 67.27437l261.25983 0" fill-rule="nonzero"></path><path stroke="#0187e8" stroke-width="16.0" stroke-linejoin="round" stroke-linecap="butt" d="m895.32416 67.27437l261.25983 0" fill-rule="nonzero"></path><path fill="#000000" fill-opacity="0.0" d="m847.3218 115.06025l0 486.58148" fill-rule="nonzero"></path><path stroke="#0187e8" stroke-width="16.0" stroke-linejoin="round" stroke-linecap="butt" d="m847.3218 115.06025l0 486.58148" fill-rule="nonzero"></path><path fill="#000000" fill-opacity="0.0" d="m895.7638 67.272964l0 0c-12.847351 0 -25.168518 5.086998 -34.25293 14.141899c-9.084473 9.054909 -14.188049 21.335999 -14.188049 34.141563l48.44098 0z" fill-rule="nonzero"></path><path fill="#000000" fill-opacity="0.0" d="m895.7638 67.272964l0 0c-12.847351 0 -25.168518 5.086998 -34.25293 14.141899c-9.084473 9.054909 -14.188049 21.335999 -14.188049 34.141563" fill-rule="nonzero"></path><path stroke="#0187e8" stroke-width="16.0" stroke-linejoin="round" stroke-linecap="butt" d="m895.7638 67.272964l0 0c-12.847351 0 -25.168518 5.086998 -34.25293 14.141899c-9.084473 9.054909 -14.188049 21.335999 -14.188049 34.141563" fill-rule="nonzero"></path><path fill="#000000" fill-opacity="0.0" d="m944.32416 115.725815l261.25983 0" fill-rule="nonzero"></path><path stroke="#0187e8" stroke-width="16.0" stroke-linejoin="round" stroke-linecap="butt" d="m944.32416 115.725815l261.25983 0" fill-rule="nonzero"></path><path fill="#000000" fill-opacity="0.0" d="m897.72595 163.51169l0 486.58267" fill-rule="nonzero"></path><path stroke="#0187e8" stroke-width="16.0" stroke-linejoin="round" stroke-linecap="butt" d="m897.72595 163.51169l0 486.58267" fill-rule="nonzero"></path><path fill="#000000" fill-opacity="0.0" d="m946.04987 115.72441l0 0c-12.847351 0 -25.168457 5.0869904 -34.25293 14.1418915c-9.084412 9.054916 -14.187988 21.335999 -14.187988 34.14157l48.440918 0z" fill-rule="nonzero"></path><path fill="#000000" fill-opacity="0.0" d="m946.04987 115.72441l0 0c-12.847351 0 -25.168457 5.0869904 -34.25293 14.1418915c-9.084412 9.054916 -14.187988 21.335999 -14.187988 34.14157" fill-rule="nonzero"></path><path stroke="#0187e8" stroke-width="16.0" stroke-linejoin="round" stroke-linecap="butt" d="m946.04987 115.72441l0 0c-12.847351 0 -25.168457 5.0869904 -34.25293 14.1418915c-9.084412 9.054916 -14.187988 21.335999 -14.187988 34.14157" fill-rule="nonzero"></path><path fill="#000000" fill-opacity="0.0" d="m993.35565 163.77306l261.25983 0" fill-rule="nonzero"></path><path stroke="#0187e8" stroke-width="16.0" stroke-linejoin="round" stroke-linecap="butt" d="m993.35565 163.77306l261.25983 0" fill-rule="nonzero"></path><path fill="#000000" fill-opacity="0.0" d="m945.3533 211.55894l0 486.58264" fill-rule="nonzero"></path><path stroke="#0187e8" stroke-width="16.0" stroke-linejoin="round" stroke-linecap="butt" d="m945.3533 211.55894l0 486.58264" fill-rule="nonzero"></path><path fill="#000000" fill-opacity="0.0" d="m993.7953 163.77165l0 0c-12.847351 0 -25.168518 5.0869904 -34.25293 14.141907c-9.084473 9.054901 -14.188049 21.335983 -14.188049 34.141556l48.44098 0z" fill-rule="nonzero"></path><path fill="#000000" fill-opacity="0.0" d="m993.7953 163.77165l0 0c-12.847351 0 -25.168518 5.0869904 -34.25293 14.141907c-9.084473 9.054901 -14.188049 21.335983 -14.188049 34.141556" fill-rule="nonzero"></path><path stroke="#0187e8" stroke-width="16.0" stroke-linejoin="round" stroke-linecap="butt" d="m993.7953 163.77165l0 0c-12.847351 0 -25.168518 5.0869904 -34.25293 14.141907c-9.084473 9.054901 -14.188049 21.335983 -14.188049 34.141556" fill-rule="nonzero"></path><path fill="#000000" fill-opacity="0.0" d="m932.55383 263.90027l0 0c0 -7.4536743 6.0423584 -13.496063 13.496033 -13.496063l0 0c3.5794067 0 7.012146 1.4218903 9.543152 3.952896c2.5310059 2.531021 3.952942 5.963791 3.952942 9.543167l0 0c0 7.4536743 -6.0424194 13.496063 -13.496094 13.496063l0 0c-7.4536743 0 -13.496033 -6.042389 -13.496033 -13.496063z" fill-rule="nonzero"></path><path stroke="#999999" stroke-width="12.0" stroke-linejoin="round" stroke-linecap="butt" d="m932.55383 263.90027l0 0c0 -7.4536743 6.0423584 -13.496063 13.496033 -13.496063l0 0c3.5794067 0 7.012146 1.4218903 9.543152 3.952896c2.5310059 2.531021 3.952942 5.963791 3.952942 9.543167l0 0c0 7.4536743 -6.0424194 13.496063 -13.496094 13.496063l0 0c-7.4536743 0 -13.496033 -6.042389 -13.496033 -13.496063z" fill-rule="nonzero"></path><path fill="#000000" fill-opacity="0.0" d="m884.7507 263.90027l0 0c0 -7.4536743 6.0423584 -13.496063 13.496033 -13.496063l0 0c3.5794067 0 7.012146 1.4218903 9.543152 3.952896c2.5310059 2.531021 3.952942 5.963791 3.952942 9.543167l0 0c0 7.4536743 -6.0424194 13.496063 -13.496094 13.496063l0 0c-7.4536743 0 -13.496033 -6.042389 -13.496033 -13.496063z" fill-rule="nonzero"></path><path stroke="#999999" stroke-width="12.0" stroke-linejoin="round" stroke-linecap="butt" d="m884.7507 263.90027l0 0c0 -7.4536743 6.0423584 -13.496063 13.496033 -13.496063l0 0c3.5794067 0 7.012146 1.4218903 9.543152 3.952896c2.5310059 2.531021 3.952942 5.963791 3.952942 9.543167l0 0c0 7.4536743 -6.0424194 13.496063 -13.496094 13.496063l0 0c-7.4536743 0 -13.496033 -6.042389 -13.496033 -13.496063z" fill-rule="nonzero"></path><path fill="#000000" fill-opacity="0.0" d="m991.3824 626.22046c0 -150.74014 -71.33856 -226.11023 -142.67719 -301.48032c-71.33856 -75.37007 -142.67712 -150.74014 -142.67712 -301.4803" fill-rule="nonzero"></path><path stroke="#e74c3c" stroke-width="16.0" stroke-linejoin="round" stroke-linecap="butt" d="m991.3824 626.22046c0 -150.74014 -71.33856 -226.11023 -142.67719 -301.48032c-71.33856 -75.37007 -142.67712 -150.74014 -142.67712 -301.4803" fill-rule="nonzero"></path><path fill="#000000" fill-opacity="0.0" d="m779.43225 263.3701l0 0c0 -7.4536743 6.0424194 -13.4960785 13.496094 -13.4960785l0 0c3.5793457 0 7.012146 1.4219055 9.543152 3.9529114c2.5310059 2.5309906 3.9528809 5.963791 3.9528809 9.543167l0 0c0 7.4536743 -6.0424194 13.496063 -13.496033 13.496063l0 0c-7.4536743 0 -13.496094 -6.042389 -13.496094 -13.496063z" fill-rule="nonzero"></path><path stroke="#999999" stroke-width="12.0" stroke-linejoin="round" stroke-linecap="butt" d="m779.43225 263.3701l0 0c0 -7.4536743 6.0424194 -13.4960785 13.496094 -13.4960785l0 0c3.5793457 0 7.012146 1.4219055 9.543152 3.9529114c2.5310059 2.5309906 3.9528809 5.963791 3.9528809 9.543167l0 0c0 7.4536743 -6.0424194 13.496063 -13.496033 13.496063l0 0c-7.4536743 0 -13.496094 -6.042389 -13.496094 -13.496063z" fill-rule="nonzero"></path><path fill="#000000" fill-opacity="0.0" d="m706.0289 -8.9921255l0 38.771652" fill-rule="nonzero"></path><path stroke="#e74c3c" stroke-width="16.0" stroke-linejoin="round" stroke-linecap="butt" d="m706.0289 -8.9921255l0 38.771652" fill-rule="nonzero"></path><path fill="#000000" fill-opacity="0.0" d="m1040.4028 625.4803c0 -150.74014 -71.3385 -226.1102 -142.67712 -301.4803c-71.33856 -75.37007 -142.67712 -150.74016 -142.67712 -301.48032" fill-rule="nonzero"></path><path stroke="#e74c3c" stroke-width="16.0" stroke-linejoin="round" stroke-linecap="butt" d="m1040.4028 625.4803c0 -150.74014 -71.3385 -226.1102 -142.67712 -301.4803c-71.33856 -75.37007 -142.67712 -150.74016 -142.67712 -301.48032" fill-rule="nonzero"></path><path fill="#000000" fill-opacity="0.0" d="m832.1116 264.11023l0 0c0 -7.4536743 6.0423584 -13.496063 13.496033 -13.496063l0 0c3.5794067 0 7.012146 1.4219055 9.543152 3.9529114c2.5310059 2.5310059 3.952942 5.9637756 3.952942 9.543152l0 0c0 7.4536743 -6.0424194 13.496063 -13.496094 13.496063l0 0c-7.4536743 0 -13.496033 -6.042389 -13.496033 -13.496063z" fill-rule="nonzero"></path><path stroke="#999999" stroke-width="12.0" stroke-linejoin="round" stroke-linecap="butt" d="m832.1116 264.11023l0 0c0 -7.4536743 6.0423584 -13.496063 13.496033 -13.496063l0 0c3.5794067 0 7.012146 1.4219055 9.543152 3.9529114c2.5310059 2.5310059 3.952942 5.9637756 3.952942 9.543152l0 0c0 7.4536743 -6.0424194 13.496063 -13.496094 13.496063l0 0c-7.4536743 0 -13.496033 -6.042389 -13.496033 -13.496063z" fill-rule="nonzero"></path><path fill="#000000" fill-opacity="0.0" d="m755.04987 -8.251968l0 38.771652" fill-rule="nonzero"></path><path stroke="#e74c3c" stroke-width="16.0" stroke-linejoin="round" stroke-linecap="butt" d="m755.04987 -8.251968l0 38.771652" fill-rule="nonzero"></path><path fill="#000000" fill-opacity="0.0" d="m942.8543 625.4803c0 -150.74014 -71.33856 -226.1102 -142.67712 -301.4803c-71.33862 -75.37007 -142.67719 -150.74016 -142.67719 -301.48032" fill-rule="nonzero"></path><path stroke="#e74c3c" stroke-width="16.0" stroke-linejoin="round" stroke-linecap="butt" d="m942.8543 625.4803c0 -150.74014 -71.33856 -226.1102 -142.67712 -301.4803c-71.33862 -75.37007 -142.67719 -150.74016 -142.67719 -301.48032" fill-rule="nonzero"></path><path fill="#000000" fill-opacity="0.0" d="m732.28345 264.11023l0 0c0 -7.4536743 6.0424194 -13.496063 13.496094 -13.496063l0 0c3.5793457 0 7.012146 1.4219055 9.543152 3.9529114c2.5310059 2.5310059 3.9528809 5.9637756 3.9528809 9.543152l0 0c0 7.4536743 -6.0423584 13.496063 -13.496033 13.496063l0 0c-7.4536743 0 -13.496094 -6.042389 -13.496094 -13.496063z" fill-rule="nonzero"></path><path stroke="#999999" stroke-width="12.0" stroke-linejoin="round" stroke-linecap="butt" d="m732.28345 264.11023l0 0c0 -7.4536743 6.0424194 -13.496063 13.496094 -13.496063l0 0c3.5793457 0 7.012146 1.4219055 9.543152 3.9529114c2.5310059 2.5310059 3.9528809 5.9637756 3.9528809 9.543152l0 0c0 7.4536743 -6.0423584 13.496063 -13.496033 13.496063l0 0c-7.4536743 0 -13.496094 -6.042389 -13.496094 -13.496063z" fill-rule="nonzero"></path><path fill="#000000" fill-opacity="0.0" d="m657.20996 -14.771653l0 38.771652" fill-rule="nonzero"></path><path stroke="#e74c3c" stroke-width="16.0" stroke-linejoin="round" stroke-linecap="butt" d="m657.20996 -14.771653l0 38.771652" fill-rule="nonzero"></path><path fill="#000000" fill-opacity="0.0" d="m1352.7441 204.78618l261.25977 0" fill-rule="nonzero"></path><path stroke="#0187e8" stroke-width="16.0" stroke-linejoin="round" stroke-linecap="butt" d="m1352.7441 204.78618l261.25977 0" fill-rule="nonzero"></path><path fill="#000000" fill-opacity="0.0" d="m1304.7417 252.57207l0 486.58264" fill-rule="nonzero"></path><path stroke="#0187e8" stroke-width="16.0" stroke-linejoin="round" stroke-linecap="butt" d="m1304.7417 252.57207l0 486.58264" fill-rule="nonzero"></path><path fill="#000000" fill-opacity="0.0" d="m1353.1837 204.78477l0 0c-12.84729 0 -25.168457 5.0869904 -34.25293 14.141907c-9.084473 9.054901 -14.187988 21.335983 -14.187988 34.141556l48.440918 0z" fill-rule="nonzero"></path><path fill="#000000" fill-opacity="0.0" d="m1353.1837 204.78477l0 0c-12.84729 0 -25.168457 5.0869904 -34.25293 14.141907c-9.084473 9.054901 -14.187988 21.335983 -14.187988 34.141556" fill-rule="nonzero"></path><path stroke="#0187e8" stroke-width="16.0" stroke-linejoin="round" stroke-linecap="butt" d="m1353.1837 204.78477l0 0c-12.84729 0 -25.168457 5.0869904 -34.25293 14.141907c-9.084473 9.054901 -14.187988 21.335983 -14.187988 34.141556" fill-rule="nonzero"></path><path fill="#cfe2f3" d="m1223.4973 233.7454l32.0 0l0 22.488174l-32.0 0z" fill-rule="nonzero"></path><path fill="#cfe2f3" d="m1179.9973 147.27296l0 -32.0l22.488281 0l0 32.0z" fill-rule="nonzero"></path></g></svg>

